<svg version="1.1" xmlns="http://www.w3.org/2000/svg" xmlns:xlink="http://www.w3.org/1999/xlink" width="415.96411" height="253.39536" viewBox="0,0,415.96411,253.39536"><defs><linearGradient x1="32.01794" y1="180" x2="447.98206" y2="180" gradientUnits="userSpaceOnUse" id="color-1"><stop offset="0" stop-color="#6aff66"/><stop offset="1" stop-color="#97ff66"/></linearGradient><linearGradient x1="74.44712" y1="203.24428" x2="151.71114" y2="203.24428" gradientUnits="userSpaceOnUse" id="color-2"><stop offset="0" stop-color="#3fcc3b"/><stop offset="1" stop-color="#5cff11"/></linearGradient><linearGradient x1="124.63576" y1="201.91944" x2="210.5121" y2="201.91944" gradientUnits="userSpaceOnUse" id="color-3"><stop offset="0" stop-color="#3fcc3b"/><stop offset="1" stop-color="#5cff11"/></linearGradient><linearGradient x1="179.75477" y1="216.10442" x2="260.59915" y2="216.10442" gradientUnits="userSpaceOnUse" id="color-4"><stop offset="0" stop-color="#3fcc3b"/><stop offset="1" stop-color="#5cff11"/></linearGradient><linearGradient x1="290" y1="118.73125" x2="406.31082" y2="118.73125" gradientTransform="translate(-190.98823,-89.73154) scale(0.65858,0.65858)" gradientUnits="userSpaceOnUse" id="color-5"><stop offset="0" stop-color="#3fcc3b"/><stop offset="1" stop-color="#ccab3b"/></linearGradient></defs><g transform="translate(-32.01794,-53.30232)"><g data-paper-data="{&quot;isPaintingLayer&quot;:true}" fill-rule="nonzero" stroke="none" stroke-linecap="butt" stroke-linejoin="miter" stroke-miterlimit="10" stroke-dasharray="" stroke-dashoffset="0" style="mix-blend-mode: normal"><path d="M32.01794,306.69768v-253.39536h415.96411v253.39536z" fill="url(#color-1)" stroke-width="0"/><g stroke-width="0.5"><path d="M151.11896,123.26126c2.90169,8.70508 -5.80338,11.60677 -5.80338,11.60677l-4.00659,1.3284c-0.97945,0.13279 -2.13169,-0.17283 -2.93834,0.39836c-1.68956,1.19636 -2.7192,3.12445 -4.14991,4.62077c-5.63928,5.8979 -11.32422,11.05144 -16.39294,17.52158c-2.16386,2.76213 -3.92708,5.82524 -6.11841,8.56563c-6.84371,8.55849 -14.25329,14.49935 -18.04544,25.23477c-0.9603,2.71857 -0.80051,11.37527 -0.80023,15.59728c0.00089,13.28445 -0.51259,19.2153 1.14424,31.8303c1.77359,13.504 6.12084,26.67475 6.19652,40.35388c0,0 0,9.17596 -9.17596,9.17596c-9.17596,0 -9.17596,-9.17596 -9.17596,-9.17596c0.09646,-12.76365 -4.40451,-25.34372 -6.03808,-37.9476c-1.80528,-13.92871 -1.30359,-19.70674 -1.30268,-34.23658c0.0004,-6.41868 -0.11793,-16.06617 1.64669,-21.10654c5.33027,-15.22511 11.81019,-19.39154 21.1053,-31.04443c2.18728,-2.7421 3.94544,-5.80762 6.1162,-8.56282c5.43022,-6.89222 11.56877,-13.09577 17.86396,-19.18224c2.66135,-2.57311 4.97667,-5.60292 8.0847,-7.61384c2.00078,-1.29452 4.56623,-1.36571 6.84934,-2.04857l3.33417,-1.11852c0,0 8.70508,-2.90169 11.60677,5.80338z" fill="url(#color-2)"/><path d="M207.62838,119.67457c6.48838,6.48838 0,12.97676 0,12.97676l-2.44692,2.44692c-3.03793,3.01977 -5.42494,6.6494 -8.45523,9.67683c-5.6469,5.64158 -12.84159,9.66794 -18.11984,15.65583c-3.02548,3.43224 -5.24271,7.50022 -7.81713,11.28256c-7.98118,11.72596 -15.12693,24.08355 -20.9517,37.0445c-2.88121,6.4111 -3.2356,13.68595 -4.51373,20.59753c-2.99044,16.17106 -2.29821,32.18187 -2.29821,48.51657c0,0 0,9.17596 -9.17596,9.17596c-9.17596,0 -9.17596,-9.17596 -9.17596,-9.17596c0,-17.47207 -0.55684,-34.49024 2.59564,-51.80721c1.43478,-7.88142 2.10123,-16.09115 5.27396,-23.44705c6.23167,-14.44799 14.19416,-28.3111 23.09288,-41.25698c3.04808,-4.43435 5.74953,-9.1533 9.31132,-13.18665c6.07933,-6.88421 12.29935,-9.86283 18.58398,-16.15415c3.10037,-3.10367 5.57885,-6.78888 8.67322,-9.89854l2.44692,-2.44692c0,0 6.48838,-6.48838 12.97676,0z" fill="url(#color-3)"/><path d="M260.00696,148.95394c2.90169,8.70508 -5.80338,11.60677 -5.80338,11.60677l-1.74799,0.32392c-5.41791,6.16457 -11.93083,10.09813 -17.17384,16.76427c-10.06342,12.79497 -9.95573,15.12334 -16.83506,29.95489c-5.19511,11.20045 -9.16157,17.90646 -12.07169,29.65906c-2.18773,8.83521 -2.79988,18.00543 -4.88159,26.86621c-1.34745,5.73539 -2.7695,11.47989 -3.48291,17.32809c0,0 -1.13814,9.1051 -10.24323,7.96696c-9.1051,-1.13814 -7.96696,-10.24323 -7.96696,-10.24323c1.36063,-10.66228 4.27288,-20.52795 6.19679,-31.10263c0.92207,-5.0681 1.30783,-10.24417 2.56715,-15.23916c3.44496,-13.66411 7.22417,-20.02796 13.23751,-32.96438c7.60342,-16.35716 7.79987,-19.28051 19.18015,-33.72828c6.47355,-8.21846 14.33479,-13.87581 21.82552,-20.87286l5.59278,-2.123c0,0 8.70508,-2.90169 11.60677,5.80338z" fill="url(#color-4)"/></g><text transform="translate(290,136.25) scale(1.51842,1.51842)" font-size="40" xml:space="preserve" fill="url(#color-5)" fill-rule="nonzero" stroke="none" stroke-width="1" stroke-linecap="butt" stroke-linejoin="miter" stroke-miterlimit="10" stroke-dasharray="" stroke-dashoffset="0" font-family="Sans Serif" font-weight="normal" text-anchor="start" style="mix-blend-mode: normal"><tspan x="0" dy="0">SDK</tspan></text></g></g></svg>