<svg version="1.1" xmlns="http://www.w3.org/2000/svg" xmlns:xlink="http://www.w3.org/1999/xlink" width="415.96411" height="253.39536" viewBox="0,0,415.96411,253.39536"><defs><linearGradient x1="32.01794" y1="180" x2="447.98205" y2="180" gradientUnits="userSpaceOnUse" id="color-1"><stop offset="0" stop-color="#66dcff"/><stop offset="1" stop-color="#6683ff"/></linearGradient><linearGradient x1="130.92771" y1="179.57522" x2="349.92771" y2="179.57522" gradientUnits="userSpaceOnUse" id="color-2"><stop offset="0" stop-color="#52b0cd"/><stop offset="1" stop-color="#528ccc"/></linearGradient></defs><g transform="translate(-32.01794,-53.30232)"><g data-paper-data="{&quot;isPaintingLayer&quot;:true}" fill-rule="nonzero" stroke="none" stroke-width="0" stroke-linejoin="miter" stroke-miterlimit="10" stroke-dasharray="" stroke-dashoffset="0" style="mix-blend-mode: normal"><path d="M32.01794,306.69768v-253.39536h415.96411v253.39536z" fill="url(#color-1)" stroke-linecap="butt"/><path d="M191.92771,131.32522c-2.24488,3.1744 -40.22936,65.5533 -48.98799,77.997c-3.82991,5.44129 0.14456,15.07603 5.9985,18.003c5.85394,2.92697 12.01083,12.57844 23.98949,6c11.97866,-6.57844 26.5,-39.5 26.5,-39.5l87.5,-2.5c0,0 4.64093,19.22983 14.997,35.48949c2.6313,4.1313 22.35697,12.90113 29.503,9.01051c9.09756,-4.95312 13.83782,-16.34207 10.99249,-27.5045c-2.84533,-11.16243 -33.77458,-68.11281 -36.99249,-74.4955c-1.94399,-3.85587 0.38909,-8.34399 -2,-9.5c-2.38909,-1.15601 -14.7365,-3.05671 -19.83333,-1.66667c-5.09683,1.39004 -0.56321,8.96663 -3,9.16667c-2.43679,0.20004 -55.4276,2.80395 -57.66667,0c-5.34158,-6.68919 -3.81493,-7.82676 -8.5,-9.5c-4.68507,-1.67324 -16.70272,-3.18779 -19.5,-0.5c-2.03938,1.95956 -0.75512,6.3256 -3,9.5z" fill="url(#color-2)" stroke-linecap="round"/></g></g></svg>