<svg version="1.1" xmlns="http://www.w3.org/2000/svg" xmlns:xlink="http://www.w3.org/1999/xlink" width="415.96411" height="253.39536" viewBox="0,0,415.96411,253.39536"><g transform="translate(-32.01794,-53.30232)"><g data-paper-data="{&quot;isPaintingLayer&quot;:true}" fill-rule="nonzero" stroke-linejoin="miter" stroke-miterlimit="10" stroke-dasharray="" stroke-dashoffset="0" style="mix-blend-mode: normal"><g stroke-width="0" stroke-linecap="butt"><path d="M32.01794,306.69768v-253.39536h415.96411v253.39536z" fill="#00ff59" stroke="none"/><path d="M108,259.97145v-138c0,0 34.68639,1.07808 37,-14c1.26355,-8.2347 65.01475,-9.65332 67.00895,-6.15123c7.99613,14.04228 9.48635,14.97052 16.95091,15.61567c64.98097,5.61619 143.04014,4.53556 143.04014,4.53556v138z" fill="#fff100" stroke="#000000"/></g><g><g stroke="#000000" stroke-width="2" stroke-linecap="butt"><path d="M193,180c0,-25.95738 21.04262,-47 47,-47c25.95738,0 47,21.04262 47,47c0,25.95738 -21.04262,47 -47,47c-25.95738,0 -47,-21.04262 -47,-47z" fill="#dddddd"/><path d="M235.5,180c0,-2.48528 2.01472,-4.5 4.5,-4.5c2.48528,0 4.5,2.01472 4.5,4.5c0,2.48528 -2.01472,4.5 -4.5,4.5c-2.48528,0 -4.5,-2.01472 -4.5,-4.5z" fill="none"/></g><path d="M195.34722,169.82812l38.75,8l4.25,-4l-9.75,-38.5c0,0 -8.78179,-1.2356 -22.10635,12.90094c-8.99175,9.53969 -11.14365,21.59906 -11.14365,21.59906z" fill="#c7c7c7" stroke="none" stroke-width="0" stroke-linecap="round"/></g></g></g></svg>